<mxfile host="app.diagrams.net" modified="2021-07-07T03:02:54.048Z" agent="5.0 (Windows NT 10.0; WOW64) AppleWebKit/537.36 (KHTML, like Gecko) Chrome/91.0.4472.124 Safari/537.36" etag="2rq7t_6uCkqeXqgcZjSY" version="14.8.0" type="github">
  <diagram id="-LPgbs2Pfr4KTK-yrl9k" name="Page-1">
    <mxGraphModel dx="1069" dy="576" grid="1" gridSize="10" guides="1" tooltips="1" connect="1" arrows="1" fold="1" page="1" pageScale="1" pageWidth="827" pageHeight="1169" math="0" shadow="0">
      <root>
        <mxCell id="0" />
        <mxCell id="1" parent="0" />
        <mxCell id="R_SQ2PMzTZvu9ZKSQZgp-16" value="发布" style="edgeStyle=orthogonalEdgeStyle;rounded=0;orthogonalLoop=1;jettySize=auto;html=1;exitX=1;exitY=0.5;exitDx=0;exitDy=0;entryX=0;entryY=0.5;entryDx=0;entryDy=0;" edge="1" parent="1" source="bMpUHvNgEv0Hm8hHe3ty-6" target="g1Vp_xs4JSrdl10Znk2k-20">
          <mxGeometry relative="1" as="geometry" />
        </mxCell>
        <mxCell id="bMpUHvNgEv0Hm8hHe3ty-6" value="&lt;span style=&quot;font-size: 10px&quot;&gt;K8S发布方法&lt;br&gt;&lt;/span&gt;" style="rounded=1;whiteSpace=wrap;html=1;fillColor=#d5e8d4;strokeColor=#82b366;" parent="1" vertex="1">
          <mxGeometry x="870" y="320" width="90" height="40" as="geometry" />
        </mxCell>
        <mxCell id="_WuK49vaM4b_cFBur636-35" style="edgeStyle=none;rounded=0;orthogonalLoop=1;jettySize=auto;html=1;exitX=1;exitY=0.5;exitDx=0;exitDy=0;entryX=0;entryY=0.5;entryDx=0;entryDy=0;" parent="1" source="bMpUHvNgEv0Hm8hHe3ty-12" target="bMpUHvNgEv0Hm8hHe3ty-25" edge="1">
          <mxGeometry relative="1" as="geometry" />
        </mxCell>
        <mxCell id="bMpUHvNgEv0Hm8hHe3ty-12" value="&lt;span style=&quot;font-size: 10px&quot;&gt;应用打包编译&lt;br&gt;celery task&lt;/span&gt;" style="rounded=1;whiteSpace=wrap;html=1;fillColor=#d5e8d4;strokeColor=#82b366;" parent="1" vertex="1">
          <mxGeometry x="520" y="410" width="80" height="40" as="geometry" />
        </mxCell>
        <mxCell id="_WuK49vaM4b_cFBur636-33" value="回调" style="edgeStyle=none;rounded=0;orthogonalLoop=1;jettySize=auto;html=1;exitX=1;exitY=0.5;exitDx=0;exitDy=0;entryX=0;entryY=0.5;entryDx=0;entryDy=0;" parent="1" source="bMpUHvNgEv0Hm8hHe3ty-25" target="DeNcY2WeLsBX7iS7J6Gy-3" edge="1">
          <mxGeometry relative="1" as="geometry" />
        </mxCell>
        <mxCell id="bMpUHvNgEv0Hm8hHe3ty-25" value="&lt;span style=&quot;font-size: 10px&quot;&gt;Jenkins&lt;br&gt;&lt;/span&gt;" style="rounded=1;whiteSpace=wrap;html=1;fillColor=#f8cecc;strokeColor=#b85450;" parent="1" vertex="1">
          <mxGeometry x="640" y="410" width="60" height="40" as="geometry" />
        </mxCell>
        <mxCell id="DeNcY2WeLsBX7iS7J6Gy-1" value="&lt;font style=&quot;font-size: 10px&quot;&gt;编译发布接口（JAVA，H5）&lt;br&gt;&lt;/font&gt;" style="rounded=1;whiteSpace=wrap;html=1;fillColor=#d5e8d4;strokeColor=#82b366;" parent="1" vertex="1">
          <mxGeometry x="430" y="410" width="90" height="40" as="geometry" />
        </mxCell>
        <mxCell id="DeNcY2WeLsBX7iS7J6Gy-13" style="edgeStyle=orthogonalEdgeStyle;rounded=0;orthogonalLoop=1;jettySize=auto;html=1;exitX=1;exitY=0.5;exitDx=0;exitDy=0;entryX=0;entryY=0.5;entryDx=0;entryDy=0;" parent="1" source="DeNcY2WeLsBX7iS7J6Gy-3" target="DeNcY2WeLsBX7iS7J6Gy-12" edge="1">
          <mxGeometry relative="1" as="geometry" />
        </mxCell>
        <mxCell id="DeNcY2WeLsBX7iS7J6Gy-3" value="&lt;font style=&quot;font-size: 10px&quot;&gt;caocao_release&lt;br&gt;jenkins 编译回调&lt;br&gt;&lt;/font&gt;" style="rounded=1;whiteSpace=wrap;html=1;fillColor=#d5e8d4;strokeColor=#82b366;" parent="1" vertex="1">
          <mxGeometry x="737" y="410" width="90" height="40" as="geometry" />
        </mxCell>
        <mxCell id="DeNcY2WeLsBX7iS7J6Gy-18" style="rounded=0;orthogonalLoop=1;jettySize=auto;html=1;exitX=0.5;exitY=1;exitDx=0;exitDy=0;entryX=0.5;entryY=0;entryDx=0;entryDy=0;" parent="1" source="DeNcY2WeLsBX7iS7J6Gy-12" target="DeNcY2WeLsBX7iS7J6Gy-17" edge="1">
          <mxGeometry relative="1" as="geometry" />
        </mxCell>
        <mxCell id="DeNcY2WeLsBX7iS7J6Gy-19" value="ECS" style="edgeLabel;html=1;align=center;verticalAlign=middle;resizable=0;points=[];" parent="DeNcY2WeLsBX7iS7J6Gy-18" vertex="1" connectable="0">
          <mxGeometry x="-0.2386" y="-2" relative="1" as="geometry">
            <mxPoint as="offset" />
          </mxGeometry>
        </mxCell>
        <mxCell id="g1Vp_xs4JSrdl10Znk2k-10" value="K8S发布" style="edgeStyle=none;rounded=0;orthogonalLoop=1;jettySize=auto;html=1;exitX=0.5;exitY=0;exitDx=0;exitDy=0;entryX=0.5;entryY=1;entryDx=0;entryDy=0;" parent="1" source="DeNcY2WeLsBX7iS7J6Gy-12" target="bMpUHvNgEv0Hm8hHe3ty-6" edge="1">
          <mxGeometry relative="1" as="geometry" />
        </mxCell>
        <mxCell id="g1Vp_xs4JSrdl10Znk2k-11" value="第三方" style="edgeStyle=none;rounded=0;orthogonalLoop=1;jettySize=auto;html=1;exitX=1;exitY=0.5;exitDx=0;exitDy=0;entryX=0;entryY=0.5;entryDx=0;entryDy=0;" parent="1" source="DeNcY2WeLsBX7iS7J6Gy-12" target="g1Vp_xs4JSrdl10Znk2k-7" edge="1">
          <mxGeometry relative="1" as="geometry" />
        </mxCell>
        <mxCell id="DeNcY2WeLsBX7iS7J6Gy-12" value="根据deploy_target&lt;br&gt;判断发布目标" style="rhombus;whiteSpace=wrap;html=1;fillColor=#ffe6cc;strokeColor=#d79b00;" parent="1" vertex="1">
          <mxGeometry x="860" y="396.25" width="110" height="67.5" as="geometry" />
        </mxCell>
        <mxCell id="NLi0mUn-bnaNOrzXobwQ-11" value="发布回调" style="edgeStyle=none;rounded=0;orthogonalLoop=1;jettySize=auto;html=1;exitX=0.5;exitY=1;exitDx=0;exitDy=0;entryX=0.5;entryY=0;entryDx=0;entryDy=0;" parent="1" source="DeNcY2WeLsBX7iS7J6Gy-17" target="NLi0mUn-bnaNOrzXobwQ-10" edge="1">
          <mxGeometry relative="1" as="geometry" />
        </mxCell>
        <mxCell id="DeNcY2WeLsBX7iS7J6Gy-17" value="&lt;font style=&quot;font-size: 10px&quot;&gt;原有发布逻辑&lt;br&gt;(ECS主机发布)&lt;br&gt;&lt;/font&gt;" style="rounded=1;whiteSpace=wrap;html=1;fillColor=#d5e8d4;strokeColor=#82b366;" parent="1" vertex="1">
          <mxGeometry x="870" y="510" width="90" height="40" as="geometry" />
        </mxCell>
        <mxCell id="R_SQ2PMzTZvu9ZKSQZgp-12" value="发布" style="edgeStyle=orthogonalEdgeStyle;rounded=0;orthogonalLoop=1;jettySize=auto;html=1;exitX=1;exitY=0.5;exitDx=0;exitDy=0;" edge="1" parent="1" source="g1Vp_xs4JSrdl10Znk2k-7">
          <mxGeometry relative="1" as="geometry">
            <mxPoint x="1150" y="426" as="targetPoint" />
          </mxGeometry>
        </mxCell>
        <mxCell id="g1Vp_xs4JSrdl10Znk2k-7" value="&lt;span style=&quot;font-size: 10px&quot;&gt;第三方发布方法&lt;br&gt;&lt;/span&gt;" style="rounded=1;whiteSpace=wrap;html=1;fillColor=#d5e8d4;strokeColor=#82b366;" parent="1" vertex="1">
          <mxGeometry x="1020" y="406.25" width="90" height="40" as="geometry" />
        </mxCell>
        <mxCell id="NLi0mUn-bnaNOrzXobwQ-16" style="edgeStyle=none;rounded=0;orthogonalLoop=1;jettySize=auto;html=1;exitX=0;exitY=0.5;exitDx=0;exitDy=0;entryX=1;entryY=0.5;entryDx=0;entryDy=0;" parent="1" source="g1Vp_xs4JSrdl10Znk2k-8" target="NLi0mUn-bnaNOrzXobwQ-15" edge="1">
          <mxGeometry relative="1" as="geometry" />
        </mxCell>
        <mxCell id="g1Vp_xs4JSrdl10Znk2k-8" value="&lt;span style=&quot;font-size: 10px&quot;&gt;Nexus jenkins job回调&lt;br&gt;&lt;/span&gt;" style="rounded=1;whiteSpace=wrap;html=1;fillColor=#d5e8d4;strokeColor=#82b366;" parent="1" vertex="1">
          <mxGeometry x="625" y="270" width="90" height="40" as="geometry" />
        </mxCell>
        <mxCell id="g1Vp_xs4JSrdl10Znk2k-20" value="&lt;span style=&quot;font-size: 10px&quot;&gt;K8S deploy&lt;br&gt;&lt;/span&gt;" style="rounded=1;whiteSpace=wrap;html=1;fillColor=#d5e8d4;strokeColor=#82b366;" parent="1" vertex="1">
          <mxGeometry x="1030" y="320" width="70" height="40" as="geometry" />
        </mxCell>
        <mxCell id="_WuK49vaM4b_cFBur636-29" value="nexus" style="edgeStyle=none;rounded=0;orthogonalLoop=1;jettySize=auto;html=1;entryX=0;entryY=0.5;entryDx=0;entryDy=0;exitX=1;exitY=0.5;exitDx=0;exitDy=0;" parent="1" source="NLi0mUn-bnaNOrzXobwQ-21" target="_WuK49vaM4b_cFBur636-15" edge="1">
          <mxGeometry relative="1" as="geometry">
            <mxPoint x="170" y="350" as="sourcePoint" />
          </mxGeometry>
        </mxCell>
        <mxCell id="_WuK49vaM4b_cFBur636-30" value="第三方、ECS" style="edgeStyle=none;rounded=0;orthogonalLoop=1;jettySize=auto;html=1;exitX=1;exitY=0.5;exitDx=0;exitDy=0;entryX=0;entryY=0.5;entryDx=0;entryDy=0;" parent="1" source="NLi0mUn-bnaNOrzXobwQ-21" target="DeNcY2WeLsBX7iS7J6Gy-1" edge="1">
          <mxGeometry relative="1" as="geometry">
            <Array as="points">
              <mxPoint x="420" y="430" />
            </Array>
          </mxGeometry>
        </mxCell>
        <mxCell id="NLi0mUn-bnaNOrzXobwQ-4" value="K8S" style="rounded=0;orthogonalLoop=1;jettySize=auto;html=1;exitX=1;exitY=0.5;exitDx=0;exitDy=0;entryX=0;entryY=0.5;entryDx=0;entryDy=0;" parent="1" source="NLi0mUn-bnaNOrzXobwQ-21" target="NLi0mUn-bnaNOrzXobwQ-2" edge="1">
          <mxGeometry relative="1" as="geometry" />
        </mxCell>
        <mxCell id="NLi0mUn-bnaNOrzXobwQ-28" style="edgeStyle=orthogonalEdgeStyle;rounded=0;orthogonalLoop=1;jettySize=auto;html=1;exitX=0.5;exitY=1;exitDx=0;exitDy=0;entryX=0;entryY=0.5;entryDx=0;entryDy=0;" parent="1" source="_WuK49vaM4b_cFBur636-5" target="NLi0mUn-bnaNOrzXobwQ-21" edge="1">
          <mxGeometry relative="1" as="geometry" />
        </mxCell>
        <mxCell id="_WuK49vaM4b_cFBur636-5" value="&lt;font style=&quot;font-size: 10px&quot;&gt;SCM发布接口&lt;br&gt;&lt;/font&gt;" style="rounded=1;whiteSpace=wrap;html=1;fillColor=#dae8fc;strokeColor=#6c8ebf;" parent="1" vertex="1">
          <mxGeometry x="120" y="310" width="90" height="40" as="geometry" />
        </mxCell>
        <mxCell id="_WuK49vaM4b_cFBur636-15" value="&lt;font style=&quot;font-size: 10px&quot;&gt;Nexus deploy&lt;br&gt;&lt;/font&gt;" style="rounded=1;whiteSpace=wrap;html=1;fillColor=#d5e8d4;strokeColor=#82b366;" parent="1" vertex="1">
          <mxGeometry x="435" y="350" width="85" height="40" as="geometry" />
        </mxCell>
        <mxCell id="_WuK49vaM4b_cFBur636-49" style="edgeStyle=none;rounded=0;orthogonalLoop=1;jettySize=auto;html=1;exitX=1;exitY=0.5;exitDx=0;exitDy=0;entryX=0;entryY=0.5;entryDx=0;entryDy=0;" parent="1" source="_WuK49vaM4b_cFBur636-22" target="_WuK49vaM4b_cFBur636-48" edge="1">
          <mxGeometry relative="1" as="geometry" />
        </mxCell>
        <mxCell id="_WuK49vaM4b_cFBur636-22" value="&lt;span style=&quot;font-size: 10px&quot;&gt;Nexus deploy&lt;br&gt;celery task&lt;/span&gt;" style="rounded=1;whiteSpace=wrap;html=1;fillColor=#d5e8d4;strokeColor=#82b366;" parent="1" vertex="1">
          <mxGeometry x="520" y="350" width="75" height="40" as="geometry" />
        </mxCell>
        <mxCell id="_WuK49vaM4b_cFBur636-24" style="edgeStyle=none;rounded=0;orthogonalLoop=1;jettySize=auto;html=1;exitX=0.5;exitY=0;exitDx=0;exitDy=0;" parent="1" source="bMpUHvNgEv0Hm8hHe3ty-25" target="bMpUHvNgEv0Hm8hHe3ty-25" edge="1">
          <mxGeometry relative="1" as="geometry" />
        </mxCell>
        <mxCell id="_WuK49vaM4b_cFBur636-50" style="edgeStyle=none;rounded=0;orthogonalLoop=1;jettySize=auto;html=1;exitX=0.5;exitY=0;exitDx=0;exitDy=0;entryX=0.5;entryY=1;entryDx=0;entryDy=0;" parent="1" source="_WuK49vaM4b_cFBur636-48" target="g1Vp_xs4JSrdl10Znk2k-8" edge="1">
          <mxGeometry relative="1" as="geometry" />
        </mxCell>
        <mxCell id="_WuK49vaM4b_cFBur636-48" value="&lt;span style=&quot;font-size: 10px&quot;&gt;Jenkins&lt;br&gt;&lt;/span&gt;" style="rounded=1;whiteSpace=wrap;html=1;fillColor=#f8cecc;strokeColor=#b85450;" parent="1" vertex="1">
          <mxGeometry x="640" y="350" width="60" height="40" as="geometry" />
        </mxCell>
        <mxCell id="NLi0mUn-bnaNOrzXobwQ-2" value="&lt;font style=&quot;font-size: 10px&quot;&gt;K8S发布接口&lt;br&gt;(JAVA\H5)&lt;br&gt;&lt;/font&gt;" style="rounded=1;whiteSpace=wrap;html=1;fillColor=#d5e8d4;strokeColor=#82b366;" parent="1" vertex="1">
          <mxGeometry x="435" y="470" width="80" height="40" as="geometry" />
        </mxCell>
        <mxCell id="NLi0mUn-bnaNOrzXobwQ-10" value="&lt;font style=&quot;font-size: 10px&quot;&gt;原有发布回调&lt;br&gt;&lt;/font&gt;" style="rounded=1;whiteSpace=wrap;html=1;fillColor=#dae8fc;strokeColor=#6c8ebf;" parent="1" vertex="1">
          <mxGeometry x="870" y="590" width="90" height="40" as="geometry" />
        </mxCell>
        <mxCell id="NLi0mUn-bnaNOrzXobwQ-13" value="&lt;font style=&quot;font-size: 10px&quot;&gt;docker发布回调&lt;br&gt;&lt;/font&gt;" style="rounded=1;whiteSpace=wrap;html=1;fillColor=#dae8fc;strokeColor=#6c8ebf;" parent="1" vertex="1">
          <mxGeometry x="1151" y="320" width="90" height="40" as="geometry" />
        </mxCell>
        <mxCell id="NLi0mUn-bnaNOrzXobwQ-15" value="&lt;font style=&quot;font-size: 10px&quot;&gt;Nexus发布回调&lt;br&gt;&lt;/font&gt;" style="rounded=1;whiteSpace=wrap;html=1;fillColor=#dae8fc;strokeColor=#6c8ebf;" parent="1" vertex="1">
          <mxGeometry x="435" y="270" width="90" height="40" as="geometry" />
        </mxCell>
        <mxCell id="NLi0mUn-bnaNOrzXobwQ-17" value="&#xa;&#xa;&lt;span style=&quot;color: rgb(0, 0, 0); font-family: helvetica; font-size: 10px; font-style: normal; font-weight: 400; letter-spacing: normal; text-align: center; text-indent: 0px; text-transform: none; word-spacing: 0px; background-color: rgb(248, 249, 250); display: inline; float: none;&quot;&gt;（新增参数: deploy_target）&lt;/span&gt;&#xa;&#xa;" style="text;html=1;strokeColor=none;fillColor=none;align=center;verticalAlign=middle;whiteSpace=wrap;rounded=0;" parent="1" vertex="1">
          <mxGeometry x="140" y="260.15999999999997" width="180" height="19.68" as="geometry" />
        </mxCell>
        <mxCell id="NLi0mUn-bnaNOrzXobwQ-20" style="edgeStyle=none;rounded=0;orthogonalLoop=1;jettySize=auto;html=1;exitX=0.5;exitY=1;exitDx=0;exitDy=0;" parent="1" source="NLi0mUn-bnaNOrzXobwQ-17" target="NLi0mUn-bnaNOrzXobwQ-17" edge="1">
          <mxGeometry relative="1" as="geometry" />
        </mxCell>
        <mxCell id="NLi0mUn-bnaNOrzXobwQ-21" value="根据deploy_target&lt;br&gt;选择发布接口" style="rhombus;whiteSpace=wrap;html=1;fillColor=#ffe6cc;strokeColor=#d79b00;" parent="1" vertex="1">
          <mxGeometry x="210" y="381.88" width="120" height="96.25" as="geometry" />
        </mxCell>
        <mxCell id="NLi0mUn-bnaNOrzXobwQ-25" style="edgeStyle=none;rounded=0;orthogonalLoop=1;jettySize=auto;html=1;entryX=0.5;entryY=0;entryDx=0;entryDy=0;" parent="1" source="_WuK49vaM4b_cFBur636-5" target="_WuK49vaM4b_cFBur636-5" edge="1">
          <mxGeometry relative="1" as="geometry" />
        </mxCell>
        <mxCell id="NLi0mUn-bnaNOrzXobwQ-27" style="edgeStyle=none;rounded=0;orthogonalLoop=1;jettySize=auto;html=1;exitX=0.5;exitY=1;exitDx=0;exitDy=0;entryX=0.5;entryY=0;entryDx=0;entryDy=0;" parent="1" source="NLi0mUn-bnaNOrzXobwQ-26" target="_WuK49vaM4b_cFBur636-5" edge="1">
          <mxGeometry relative="1" as="geometry" />
        </mxCell>
        <mxCell id="NLi0mUn-bnaNOrzXobwQ-26" value="&lt;font style=&quot;font-size: 10px&quot;&gt;SCM页面&lt;br&gt;编译发布&lt;br&gt;&lt;/font&gt;" style="rounded=1;whiteSpace=wrap;html=1;fillColor=#dae8fc;strokeColor=#6c8ebf;" parent="1" vertex="1">
          <mxGeometry x="120" y="190" width="90" height="40" as="geometry" />
        </mxCell>
        <mxCell id="R_SQ2PMzTZvu9ZKSQZgp-3" style="edgeStyle=orthogonalEdgeStyle;rounded=0;orthogonalLoop=1;jettySize=auto;html=1;exitX=1;exitY=0.5;exitDx=0;exitDy=0;entryX=0.5;entryY=1;entryDx=0;entryDy=0;" edge="1" parent="1" source="R_SQ2PMzTZvu9ZKSQZgp-1" target="bMpUHvNgEv0Hm8hHe3ty-25">
          <mxGeometry relative="1" as="geometry">
            <mxPoint x="640" y="430" as="targetPoint" />
          </mxGeometry>
        </mxCell>
        <mxCell id="R_SQ2PMzTZvu9ZKSQZgp-1" value="&lt;span style=&quot;font-size: 10px&quot;&gt;应用编译和docker构建&lt;br&gt;celery task&lt;/span&gt;" style="rounded=1;whiteSpace=wrap;html=1;fillColor=#d5e8d4;strokeColor=#82b366;" vertex="1" parent="1">
          <mxGeometry x="515" y="470" width="80" height="40" as="geometry" />
        </mxCell>
        <mxCell id="R_SQ2PMzTZvu9ZKSQZgp-13" value="&lt;font style=&quot;font-size: 10px&quot;&gt;第三方发布回调&lt;br&gt;&lt;/font&gt;" style="rounded=1;whiteSpace=wrap;html=1;fillColor=#dae8fc;strokeColor=#6c8ebf;" vertex="1" parent="1">
          <mxGeometry x="1280" y="406.25" width="90" height="40" as="geometry" />
        </mxCell>
        <mxCell id="R_SQ2PMzTZvu9ZKSQZgp-15" value="回调" style="edgeStyle=orthogonalEdgeStyle;rounded=0;orthogonalLoop=1;jettySize=auto;html=1;exitX=1;exitY=0.5;exitDx=0;exitDy=0;" edge="1" parent="1" source="R_SQ2PMzTZvu9ZKSQZgp-14" target="R_SQ2PMzTZvu9ZKSQZgp-13">
          <mxGeometry relative="1" as="geometry" />
        </mxCell>
        <mxCell id="R_SQ2PMzTZvu9ZKSQZgp-14" value="&lt;span style=&quot;font-size: 10px&quot;&gt;third deploy&lt;br&gt;&lt;/span&gt;" style="rounded=1;whiteSpace=wrap;html=1;fillColor=#d5e8d4;strokeColor=#82b366;" vertex="1" parent="1">
          <mxGeometry x="1151" y="406.25" width="90" height="40" as="geometry" />
        </mxCell>
        <mxCell id="R_SQ2PMzTZvu9ZKSQZgp-18" value="回调" style="edgeStyle=orthogonalEdgeStyle;rounded=0;orthogonalLoop=1;jettySize=auto;html=1;exitX=1;exitY=0.5;exitDx=0;exitDy=0;" edge="1" parent="1" source="g1Vp_xs4JSrdl10Znk2k-20">
          <mxGeometry x="0.0079" y="10" relative="1" as="geometry">
            <mxPoint x="1112" y="339.5" as="sourcePoint" />
            <mxPoint x="1151" y="339.54999999999995" as="targetPoint" />
            <mxPoint as="offset" />
          </mxGeometry>
        </mxCell>
      </root>
    </mxGraphModel>
  </diagram>
</mxfile>
